<svg xmlns="http://www.w3.org/2000/svg" xmlns:xlink="http://www.w3.org/1999/xlink" data-v-2cb57da0="" version="1.0" width="100%" height="100%" viewBox="0 0 340.000000 250.000000" preserveAspectRatio="xMidYMid meet" color-interpolation-filters="sRGB" style="margin: auto;"><rect data-v-2cb57da0="" x="0" y="0" width="100%" height="100%" fill="#ffffff" fill-opacity="0" class="background"/> <rect data-v-2cb57da0="" x="0" y="0" width="100%" height="100%" fill="url(#watermark)" fill-opacity="1" class="watermarklayer"/> <g data-v-2cb57da0="" fill="#e9cdb3" class="icon-text-wrapper icon-svg-group iconsvg" transform="translate(115.5,66.65999984741211)"><g fill="#e9cdb3" class="iconsvg-imagesvg icon_container" transform="matrix(1,0,0,1,0,0)" mask="url(#039f448a-bd20-4e33-bdd2-f30ba8aef8be)" opacity="1"><rect fill="#e9cdb3" fill-opacity="0" stroke-width="2" x="0" y="0" width="109" height="109" class="image-rect"/> <svg viewBox="0 0 60 60" x="0" y="0" width="109" height="109" class="image-svg-svg bn" style="overflow: visible;"><g hollow-target="iconBnFill" mask="url(#329be64f-b0f8-4656-a9a0-88a5f8501c87)"><g><svg xmlns:x="http://ns.adobe.com/Extensibility/1.0/" xmlns:i="http://ns.adobe.com/AdobeIllustrator/10.0/" xmlns:graph="http://ns.adobe.com/Graphs/1.0/" xmlns="http://www.w3.org/2000/svg" xmlns:xlink="http://www.w3.org/1999/xlink" fill="#000000" version="1.1" x="0" y="0" viewBox="5 5 90 90" style="overflow: visible;" xml:space="preserve" width="60" height="60" filtersec="colorsf26358399" filter="url(#Bkl8vX5097dZiV7qRBH09)"><g transform="scale(1, 1) skewX(0)"><g><g i:extraneous="self"><path d="M50,5L5,50l45,45l45-45L50,5z"/></g></g></g><defs><filter id="Bkl8vX5097dZiV7qRBH09"><feColorMatrix type="matrix" values="0 0 0 0 0.91015625  0 0 0 0 0.80078125  0 0 0 0 0.69921875  0 0 0 1 0"/></filter></defs></svg></g> <g filter="url(#colors1845291382)"><svg xmlns="http://www.w3.org/2000/svg" xmlns:xlink="http://www.w3.org/1999/xlink" viewBox="0 0 69.40800000000002 48.38400000000001" width="45" height="45" x="7.5" y="7.5" class="image-svg-letter"><path transform="translate(-4.32 48.02400000000001)" d="M4.32-48.02L14.47-48.02L14.47-19.22Q14.47-15.77 15.05-13.86Q15.62-11.95 16.99-10.58L16.99-10.58Q20.02-7.63 25.42-7.63L25.42-7.63Q28.87-7.63 31.43-8.82Q33.98-10.01 34.99-12.02L34.99-12.02Q36.00-14.04 36.00-19.22L36.00-19.22L36.00-48.02L46.22-48.02L46.22-19.73Q46.22-14.11 45.04-10.48Q43.85-6.84 41.40-4.61L41.40-4.61Q35.71 0.36 25.27 0.36L25.27 0.36Q14.11 0.36 9.00-4.54L9.00-4.54Q6.34-7.06 5.33-10.19Q4.32-13.32 4.32-19.01L4.32-19.01L4.32-48.02ZM41.11-12.74L41.11-8.50L72.50-8.50L72.50 0L30.96 0L30.96-12.74Q30.82-20.81 34.99-25.06L34.99-25.06Q36.94-26.93 39.24-27.58Q41.54-28.22 46.44-28.22L46.44-28.22L54.29-28.22Q58.25-28.22 59.90-29.16L59.90-29.16Q62.50-30.67 62.50-33.62L62.50-33.62Q62.50-36.86 60.12-38.38L60.12-38.38Q58.32-39.46 54.29-39.46L54.29-39.46L31.68-39.46L31.68-48.02L56.45-48.02Q65.66-48.02 69.26-44.93L69.26-44.93Q71.42-43.20 72.58-40.28Q73.73-37.37 73.73-33.98L73.73-33.98Q73.73-29.81 72.29-26.60Q70.85-23.40 68.33-21.89L68.33-21.89Q64.58-19.66 57.10-19.66L57.10-19.66L50.33-19.66Q46.73-19.66 44.96-19.22Q43.20-18.79 42.34-17.64L42.34-17.64Q41.18-16.49 41.11-12.74L41.11-12.74Z"/></svg></g></g><mask id="329be64f-b0f8-4656-a9a0-88a5f8501c87"><g fill="white"><svg xmlns:x="http://ns.adobe.com/Extensibility/1.0/" xmlns:i="http://ns.adobe.com/AdobeIllustrator/10.0/" xmlns:graph="http://ns.adobe.com/Graphs/1.0/" xmlns="http://www.w3.org/2000/svg" xmlns:xlink="http://www.w3.org/1999/xlink" version="1.1" x="0" y="0" viewBox="5 5 90 90" style="overflow: visible;" xml:space="preserve" width="60" height="60" filtersec="colorsf26358399"><g transform="scale(1, 1) skewX(0)"><g><g i:extraneous="self"><path d="M50,5L5,50l45,45l45-45L50,5z"/></g></g></g><defs/></svg></g> <g fill="black"><svg xmlns="http://www.w3.org/2000/svg" xmlns:xlink="http://www.w3.org/1999/xlink" viewBox="0 0 69.40800000000002 48.38400000000001" width="45" height="45" x="7.5" y="7.5" class="image-svg-letter"><path transform="translate(-4.32 48.02400000000001)" d="M4.32-48.02L14.47-48.02L14.47-19.22Q14.47-15.77 15.05-13.86Q15.62-11.95 16.99-10.58L16.99-10.58Q20.02-7.63 25.42-7.63L25.42-7.63Q28.87-7.63 31.43-8.82Q33.98-10.01 34.99-12.02L34.99-12.02Q36.00-14.04 36.00-19.22L36.00-19.22L36.00-48.02L46.22-48.02L46.22-19.73Q46.22-14.11 45.04-10.48Q43.85-6.84 41.40-4.61L41.40-4.61Q35.71 0.36 25.27 0.36L25.27 0.36Q14.11 0.36 9.00-4.54L9.00-4.54Q6.34-7.06 5.33-10.19Q4.32-13.32 4.32-19.01L4.32-19.01L4.32-48.02ZM41.11-12.74L41.11-8.50L72.50-8.50L72.50 0L30.96 0L30.96-12.74Q30.82-20.81 34.99-25.06L34.99-25.06Q36.94-26.93 39.24-27.58Q41.54-28.22 46.44-28.22L46.44-28.22L54.29-28.22Q58.25-28.22 59.90-29.16L59.90-29.16Q62.50-30.67 62.50-33.62L62.50-33.62Q62.50-36.86 60.12-38.38L60.12-38.38Q58.32-39.46 54.29-39.46L54.29-39.46L31.68-39.46L31.68-48.02L56.45-48.02Q65.66-48.02 69.26-44.93L69.26-44.93Q71.42-43.20 72.58-40.28Q73.73-37.37 73.73-33.98L73.73-33.98Q73.73-29.81 72.29-26.60Q70.85-23.40 68.33-21.89L68.33-21.89Q64.58-19.66 57.10-19.66L57.10-19.66L50.33-19.66Q46.73-19.66 44.96-19.22Q43.20-18.79 42.34-17.64L42.34-17.64Q41.18-16.49 41.11-12.74L41.11-12.74Z"/></svg></g></mask></svg> <defs><filter id="colors1845291382"><feColorMatrix type="matrix" values="0 0 0 0 0.91015625  0 0 0 0 0.80078125  0 0 0 0 0.69921875  0 0 0 1 0" class="icon-fecolormatrix"/></filter> <filter id="colorsf26358399"><feColorMatrix type="matrix" values="0 0 0 0 0.99609375  0 0 0 0 0.99609375  0 0 0 0 0.99609375  0 0 0 1 0" class="icon-fecolormatrix"/></filter> <filter id="colorsb5712198902"><feColorMatrix type="matrix" values="0 0 0 0 0  0 0 0 0 0  0 0 0 0 0  0 0 0 1 0" class="icon-fecolormatrix"/></filter></defs><rect v-gra="id" width="121" height="121" transform="translate(-6, -6)" style="pointer-events:none;" fill="url(#Gi_k9RwcUwnRj6FLuPAus)"/></g> </g><defs v-gra="od"><linearGradient x1="0" y1="1" x2="0" y2="0" id="5356906e-536c-44d7-999a-db07ea821c00"><stop offset="0%" stop-color="#ff0844"/><stop offset="100%" stop-color="#ffb199"/></linearGradient><filter id="42443b3f1de60f6b6fd3b6a9844b4764" filterUnits="userSpaceOnUse"><feColorMatrix type="matrix" values="0 0 0 0 0.99609375  0 0 0 0 0.99609375  0 0 0 0 0.99609375  0 0 0 1 0"/></filter></defs><defs v-gra="id"><filter id="cd2515bc-c0cb-4afe-bc2a-9160f7d523a7" filterUnits="userSpaceOnUse"><feColorMatrix type="matrix" values="0 0 0 0 0.99609375  0 0 0 0 0.99609375  0 0 0 0 0.99609375  0 0 0 1 0"/></filter><linearGradient x1="0" y1="1" x2="0" y2="0" id="Gi_k9RwcUwnRj6FLuPAus"><stop offset="0%" stop-color="#ff0844"/><stop offset="100%" stop-color="#ffb199"/></linearGradient><filter id="42443b3f1de60f6b6fd3b6a9844b4764" filterUnits="userSpaceOnUse"><feColorMatrix type="matrix" values="0 0 0 0 0.99609375  0 0 0 0 0.99609375  0 0 0 0 0.99609375  0 0 0 1 0"/></filter></defs><mask v-gra="im" id="039f448a-bd20-4e33-bdd2-f30ba8aef8be"><g fill="#e9cdb3" class="iconsvg-imagesvg icon_container" filter="url(#cd2515bc-c0cb-4afe-bc2a-9160f7d523a7)"><rect fill="#e9cdb3" fill-opacity="0" stroke-width="2" x="0" y="0" width="109" height="109" class="image-rect"/> <svg viewBox="0 0 60 60" x="0" y="0" width="109" height="109" class="image-svg-svg bn" style="overflow: visible;"><g hollow-target="iconBnFill" mask="url(#329be64f-b0f8-4656-a9a0-88a5f8501c87)"><g><svg xmlns:x="http://ns.adobe.com/Extensibility/1.0/" xmlns:i="http://ns.adobe.com/AdobeIllustrator/10.0/" xmlns:graph="http://ns.adobe.com/Graphs/1.0/" xmlns="http://www.w3.org/2000/svg" xmlns:xlink="http://www.w3.org/1999/xlink" fill="#000000" version="1.1" x="0" y="0" viewBox="5 5 90 90" style="overflow: visible;" xml:space="preserve" width="60" height="60" filtersec="colorsf26358399"><g transform="scale(1, 1) skewX(0)"><g><g i:extraneous="self"><path d="M50,5L5,50l45,45l45-45L50,5z"/></g></g></g><defs><filter id="Bkl8vX5097dZiV7qRBH09"><feColorMatrix type="matrix" values="0 0 0 0 0.91015625  0 0 0 0 0.80078125  0 0 0 0 0.69921875  0 0 0 1 0"/></filter></defs></svg></g> <g><svg xmlns="http://www.w3.org/2000/svg" xmlns:xlink="http://www.w3.org/1999/xlink" viewBox="0 0 69.40800000000002 48.38400000000001" width="45" height="45" x="7.5" y="7.5" class="image-svg-letter"><path transform="translate(-4.32 48.02400000000001)" d="M4.32-48.02L14.47-48.02L14.47-19.22Q14.47-15.77 15.05-13.86Q15.62-11.95 16.99-10.58L16.99-10.58Q20.02-7.63 25.42-7.63L25.42-7.63Q28.87-7.63 31.43-8.82Q33.98-10.01 34.99-12.02L34.99-12.02Q36.00-14.04 36.00-19.22L36.00-19.22L36.00-48.02L46.22-48.02L46.22-19.73Q46.22-14.11 45.04-10.48Q43.85-6.84 41.40-4.61L41.40-4.61Q35.71 0.36 25.27 0.36L25.27 0.36Q14.11 0.36 9.00-4.54L9.00-4.54Q6.34-7.06 5.33-10.19Q4.32-13.32 4.32-19.01L4.32-19.01L4.32-48.02ZM41.11-12.74L41.11-8.50L72.50-8.50L72.50 0L30.96 0L30.96-12.74Q30.82-20.81 34.99-25.06L34.99-25.06Q36.94-26.93 39.24-27.58Q41.54-28.22 46.44-28.22L46.44-28.22L54.29-28.22Q58.25-28.22 59.90-29.16L59.90-29.16Q62.50-30.67 62.50-33.62L62.50-33.62Q62.50-36.86 60.12-38.38L60.12-38.38Q58.32-39.46 54.29-39.46L54.29-39.46L31.68-39.46L31.68-48.02L56.45-48.02Q65.66-48.02 69.26-44.93L69.26-44.93Q71.42-43.20 72.58-40.28Q73.73-37.37 73.73-33.98L73.73-33.98Q73.73-29.81 72.29-26.60Q70.85-23.40 68.33-21.89L68.33-21.89Q64.58-19.66 57.10-19.66L57.10-19.66L50.33-19.66Q46.73-19.66 44.96-19.22Q43.20-18.79 42.34-17.64L42.34-17.64Q41.18-16.49 41.11-12.74L41.11-12.74Z"/></svg></g></g><mask id="329be64f-b0f8-4656-a9a0-88a5f8501c87"><g fill="white"><svg xmlns:x="http://ns.adobe.com/Extensibility/1.0/" xmlns:i="http://ns.adobe.com/AdobeIllustrator/10.0/" xmlns:graph="http://ns.adobe.com/Graphs/1.0/" xmlns="http://www.w3.org/2000/svg" xmlns:xlink="http://www.w3.org/1999/xlink" version="1.1" x="0" y="0" viewBox="5 5 90 90" style="overflow: visible;" xml:space="preserve" width="60" height="60" filtersec="colorsf26358399"><g transform="scale(1, 1) skewX(0)"><g><g i:extraneous="self"><path d="M50,5L5,50l45,45l45-45L50,5z"/></g></g></g><defs/></svg></g> <g fill="black"><svg xmlns="http://www.w3.org/2000/svg" xmlns:xlink="http://www.w3.org/1999/xlink" viewBox="0 0 69.40800000000002 48.38400000000001" width="45" height="45" x="7.5" y="7.5" class="image-svg-letter"><path transform="translate(-4.32 48.02400000000001)" d="M4.32-48.02L14.47-48.02L14.47-19.22Q14.47-15.77 15.05-13.86Q15.62-11.95 16.99-10.58L16.99-10.58Q20.02-7.63 25.42-7.63L25.42-7.63Q28.87-7.63 31.43-8.82Q33.98-10.01 34.99-12.02L34.99-12.02Q36.00-14.04 36.00-19.22L36.00-19.22L36.00-48.02L46.22-48.02L46.22-19.73Q46.22-14.11 45.04-10.48Q43.85-6.84 41.40-4.61L41.40-4.61Q35.71 0.36 25.27 0.36L25.27 0.36Q14.11 0.36 9.00-4.54L9.00-4.54Q6.34-7.06 5.33-10.19Q4.32-13.32 4.32-19.01L4.32-19.01L4.32-48.02ZM41.11-12.74L41.11-8.50L72.50-8.50L72.50 0L30.96 0L30.96-12.74Q30.82-20.81 34.99-25.06L34.99-25.06Q36.94-26.93 39.24-27.58Q41.54-28.22 46.44-28.22L46.44-28.22L54.29-28.22Q58.25-28.22 59.90-29.16L59.90-29.16Q62.50-30.67 62.50-33.62L62.50-33.62Q62.50-36.86 60.12-38.38L60.12-38.38Q58.32-39.46 54.29-39.46L54.29-39.46L31.68-39.46L31.68-48.02L56.45-48.02Q65.66-48.02 69.26-44.93L69.26-44.93Q71.42-43.20 72.58-40.28Q73.73-37.37 73.73-33.98L73.73-33.98Q73.73-29.81 72.29-26.60Q70.85-23.40 68.33-21.89L68.33-21.89Q64.58-19.66 57.10-19.66L57.10-19.66L50.33-19.66Q46.73-19.66 44.96-19.22Q43.20-18.79 42.34-17.64L42.34-17.64Q41.18-16.49 41.11-12.74L41.11-12.74Z"/></svg></g></mask></svg> <defs><filter id="colors1845291382"><feColorMatrix type="matrix" values="0 0 0 0 0.91015625  0 0 0 0 0.80078125  0 0 0 0 0.69921875  0 0 0 1 0" class="icon-fecolormatrix"/></filter> <filter id="colorsf26358399"><feColorMatrix type="matrix" values="0 0 0 0 0.99609375  0 0 0 0 0.99609375  0 0 0 0 0.99609375  0 0 0 1 0" class="icon-fecolormatrix"/></filter> <filter id="colorsb5712198902"><feColorMatrix type="matrix" values="0 0 0 0 0  0 0 0 0 0  0 0 0 0 0  0 0 0 1 0" class="icon-fecolormatrix"/></filter></defs></g></mask></svg>